<svg width="200" height="100" viewBox="0 0 200 100" fill="none" xmlns="http://www.w3.org/2000/svg">
<rect width="200" height="100" fill="white"/>
<mask id="path-2-inside-1_899_9319" fill="white">
<path d="M172.086 74.492C172.428 74.5869 172.791 74.5512 173.095 74.3929C173.4 74.2346 173.62 73.9665 173.709 73.6477L180.382 49.6073L168.784 46.3875C167.416 46.008 166.246 45.1374 165.529 43.9674C164.813 42.7973 164.609 41.4236 164.963 40.1484L167.966 29.3302L152.501 25.0372C152.159 24.9423 151.796 24.9779 151.492 25.1363C151.188 25.2946 150.967 25.5626 150.879 25.8814L143.787 51.4292C142.843 50.3595 141.654 49.5044 140.315 48.9327L147.012 24.8082C147.366 23.533 148.249 22.4608 149.466 21.8275C150.683 21.1942 152.135 21.0516 153.502 21.4311L169.411 25.8472C169.483 25.8673 169.55 25.8962 169.617 25.9227C169.667 25.9443 169.716 25.9658 169.765 25.9818C170.309 26.1717 170.828 26.4219 171.281 26.76C171.412 26.8585 171.532 26.9748 171.651 27.0879L171.76 27.1934L171.865 27.2848C171.929 27.3354 171.989 27.3901 172.045 27.4485C172.211 27.6317 172.349 27.8333 172.489 28.0379C172.512 28.0713 172.536 28.104 172.562 28.1358C172.598 28.1776 172.631 28.2214 172.662 28.267L183.797 46.4485C184.513 47.6184 184.717 48.9919 184.363 50.2671L177.575 74.721C177.221 75.9962 176.339 77.0684 175.122 77.7017C173.904 78.335 172.453 78.4776 171.085 78.0981L166.611 76.8559C167.825 76.1235 168.817 75.0602 169.421 73.7522L172.086 74.492ZM178.491 45.1985L171.084 33.0984L168.829 41.2217C168.741 41.5405 168.792 41.8839 168.971 42.1764C169.15 42.4689 169.443 42.6866 169.785 42.7815L178.491 45.1985Z"/>
</mask>
<path d="M172.086 74.492C172.428 74.5869 172.791 74.5512 173.095 74.3929C173.4 74.2346 173.62 73.9665 173.709 73.6477L180.382 49.6073L168.784 46.3875C167.416 46.008 166.246 45.1374 165.529 43.9674C164.813 42.7973 164.609 41.4236 164.963 40.1484L167.966 29.3302L152.501 25.0372C152.159 24.9423 151.796 24.9779 151.492 25.1363C151.188 25.2946 150.967 25.5626 150.879 25.8814L143.787 51.4292C142.843 50.3595 141.654 49.5044 140.315 48.9327L147.012 24.8082C147.366 23.533 148.249 22.4608 149.466 21.8275C150.683 21.1942 152.135 21.0516 153.502 21.4311L169.411 25.8472C169.483 25.8673 169.55 25.8962 169.617 25.9227C169.667 25.9443 169.716 25.9658 169.765 25.9818C170.309 26.1717 170.828 26.4219 171.281 26.76C171.412 26.8585 171.532 26.9748 171.651 27.0879L171.76 27.1934L171.865 27.2848C171.929 27.3354 171.989 27.3901 172.045 27.4485C172.211 27.6317 172.349 27.8333 172.489 28.0379C172.512 28.0713 172.536 28.104 172.562 28.1358C172.598 28.1776 172.631 28.2214 172.662 28.267L183.797 46.4485C184.513 47.6184 184.717 48.9919 184.363 50.2671L177.575 74.721C177.221 75.9962 176.339 77.0684 175.122 77.7017C173.904 78.335 172.453 78.4776 171.085 78.0981L166.611 76.8559C167.825 76.1235 168.817 75.0602 169.421 73.7522L172.086 74.492ZM178.491 45.1985L171.084 33.0984L168.829 41.2217C168.741 41.5405 168.792 41.8839 168.971 42.1764C169.15 42.4689 169.443 42.6866 169.785 42.7815L178.491 45.1985Z" fill="#163986"/>
<path d="M172.086 74.492L172.22 74.0102L172.22 74.0102L172.086 74.492ZM173.709 73.6477L174.191 73.7815L173.709 73.6477ZM180.382 49.6073L180.864 49.7411L180.998 49.2593L180.516 49.1255L180.382 49.6073ZM168.784 46.3875L168.65 46.8693L168.65 46.8693L168.784 46.3875ZM164.963 40.1484L165.445 40.2822L164.963 40.1484ZM167.966 29.3302L168.448 29.464L168.582 28.9822L168.1 28.8484L167.966 29.3302ZM152.501 25.0372L152.367 25.5189L152.501 25.0372ZM150.879 25.8814L150.397 25.7477L150.397 25.7477L150.879 25.8814ZM143.787 51.4292L143.412 51.7599L144.022 52.4517L144.268 51.5629L143.787 51.4292ZM140.315 48.9327L139.834 48.799L139.717 49.2207L140.119 49.3926L140.315 48.9327ZM147.012 24.8082L146.531 24.6744L147.012 24.8082ZM153.502 21.4311L153.636 20.9493L153.502 21.4311ZM169.411 25.8472L169.544 25.3655L169.544 25.3655L169.411 25.8472ZM169.617 25.9227L169.816 25.4641L169.808 25.4606L169.8 25.4573L169.617 25.9227ZM169.765 25.9818L169.929 25.5096L169.922 25.5071L169.765 25.9818ZM171.281 26.76L171.582 26.3605L171.58 26.3593L171.281 26.76ZM171.651 27.0879L171.998 26.7278L171.996 26.7263L171.651 27.0879ZM171.76 27.1934L171.413 27.5536L171.423 27.5625L171.432 27.5709L171.76 27.1934ZM171.865 27.2848L171.538 27.6622L171.546 27.6693L171.554 27.676L171.865 27.2848ZM172.045 27.4485L172.416 27.113L172.406 27.103L172.045 27.4485ZM172.489 28.0379L172.077 28.3206L172.077 28.3213L172.489 28.0379ZM172.562 28.1358L172.172 28.4486L172.178 28.4557L172.184 28.4626L172.562 28.1358ZM172.662 28.267L173.088 28.0059L173.083 27.9982L173.078 27.9907L172.662 28.267ZM183.797 46.4485L183.37 46.7096L183.37 46.7096L183.797 46.4485ZM184.363 50.2671L184.845 50.4008L184.845 50.4007L184.363 50.2671ZM177.575 74.721L177.093 74.5873L177.575 74.721ZM171.085 78.0981L171.219 77.6163L171.219 77.6163L171.085 78.0981ZM166.611 76.8559L166.353 76.4278L165.359 77.0273L166.477 77.3377L166.611 76.8559ZM169.421 73.7522L169.555 73.2704L169.146 73.1568L168.967 73.5424L169.421 73.7522ZM178.491 45.1985L178.358 45.6802L179.58 46.0196L178.918 44.9374L178.491 45.1985ZM171.084 33.0984L171.511 32.8374L170.91 31.8563L170.603 32.9647L171.084 33.0984ZM168.829 41.2217L169.311 41.3554L169.311 41.3554L168.829 41.2217ZM169.785 42.7815L169.651 43.2632L169.785 42.7815ZM171.953 74.9738C172.412 75.1012 172.906 75.0554 173.326 74.8365L172.865 73.9494C172.677 74.0471 172.445 74.0725 172.22 74.0102L171.953 74.9738ZM173.326 74.8365C173.748 74.6168 174.064 74.2393 174.191 73.7815L173.227 73.514C173.177 73.6938 173.051 73.8524 172.865 73.9494L173.326 74.8365ZM174.191 73.7815L180.864 49.7411L179.901 49.4736L173.227 73.514L174.191 73.7815ZM180.516 49.1255L168.917 45.9057L168.65 46.8693L180.249 50.0891L180.516 49.1255ZM168.917 45.9057C167.667 45.5588 166.604 44.7644 165.956 43.7063L165.103 44.2285C165.888 45.5105 167.165 46.4572 168.65 46.8693L168.917 45.9057ZM165.956 43.7063C165.309 42.6496 165.13 41.4183 165.445 40.2822L164.481 40.0147C164.089 41.4289 164.317 42.9451 165.103 44.2285L165.956 43.7063ZM165.445 40.2822L168.448 29.464L167.484 29.1965L164.481 40.0147L165.445 40.2822ZM168.1 28.8484L152.635 24.5554L152.367 25.5189L167.832 29.812L168.1 28.8484ZM152.635 24.5554C152.176 24.4279 151.682 24.4738 151.261 24.6927L151.723 25.5798C151.911 25.4821 152.143 25.4566 152.367 25.5189L152.635 24.5554ZM151.261 24.6927C150.839 24.9124 150.524 25.2899 150.397 25.7477L151.36 26.0152C151.41 25.8354 151.536 25.6768 151.723 25.5798L151.261 24.6927ZM150.397 25.7477L143.305 51.2954L144.268 51.5629L151.36 26.0152L150.397 25.7477ZM144.162 51.0985C143.168 49.9718 141.918 49.0731 140.512 48.4729L140.119 49.3926C141.391 49.9356 142.519 50.7472 143.412 51.7599L144.162 51.0985ZM140.797 49.0665L147.494 24.9419L146.531 24.6744L139.834 48.799L140.797 49.0665ZM147.494 24.9419C147.809 23.8058 148.598 22.843 149.697 22.271L149.235 21.3839C147.9 22.0786 146.923 23.2602 146.531 24.6744L147.494 24.9419ZM149.697 22.271C150.797 21.6983 152.118 21.5659 153.368 21.9129L153.636 20.9493C152.151 20.5372 150.569 20.69 149.235 21.3839L149.697 22.271ZM153.368 21.9129L169.277 26.329L169.544 25.3655L153.636 20.9493L153.368 21.9129ZM169.277 26.329C169.316 26.34 169.346 26.3534 169.435 26.3882L169.8 25.4573C169.753 25.439 169.649 25.3945 169.544 25.3655L169.277 26.329ZM169.418 26.3813C169.463 26.401 169.534 26.4321 169.607 26.4564L169.922 25.5071C169.899 25.4995 169.87 25.4876 169.816 25.4641L169.418 26.3813ZM169.6 26.4539C170.11 26.6318 170.58 26.8609 170.982 27.1607L171.58 26.3593C171.076 25.983 170.508 25.7115 169.929 25.5097L169.6 26.4539ZM170.98 27.1596C171.083 27.2368 171.181 27.3307 171.305 27.4495L171.996 26.7263C171.883 26.6188 171.741 26.4801 171.582 26.3605L170.98 27.1596ZM171.304 27.4481L171.413 27.5536L172.107 26.8333L171.998 26.7278L171.304 27.4481ZM171.432 27.5709L171.538 27.6622L172.193 26.9073L172.088 26.816L171.432 27.5709ZM171.554 27.676C171.6 27.7127 171.643 27.7521 171.683 27.794L172.406 27.103C172.335 27.0281 172.258 26.9581 172.177 26.8935L171.554 27.676ZM171.674 27.7838C171.813 27.9381 171.934 28.1117 172.077 28.3206L172.902 27.7552C172.764 27.5548 172.608 27.3253 172.416 27.1131L171.674 27.7838ZM172.077 28.3213C172.107 28.3648 172.139 28.4073 172.172 28.4486L172.952 27.823C172.934 27.8007 172.917 27.7778 172.901 27.7545L172.077 28.3213ZM172.184 28.4626C172.206 28.4885 172.226 28.5155 172.245 28.5434L173.078 27.9907C173.036 27.9273 172.99 27.8666 172.94 27.809L172.184 28.4626ZM172.235 28.5282L183.37 46.7096L184.223 46.1873L173.088 28.0059L172.235 28.5282ZM183.37 46.7096C184.017 47.7662 184.197 48.9973 183.882 50.1335L184.845 50.4007C185.238 48.9865 185.009 47.4705 184.223 46.1873L183.37 46.7096ZM183.882 50.1333L177.093 74.5873L178.057 74.8547L184.845 50.4008L183.882 50.1333ZM177.093 74.5873C176.778 75.7234 175.99 76.6862 174.891 77.2581L175.352 78.1452C176.687 77.4506 177.664 76.269 178.057 74.8547L177.093 74.5873ZM174.891 77.2581C173.79 77.8309 172.469 77.9632 171.219 77.6163L170.952 78.5798C172.436 78.992 174.019 78.8392 175.352 78.1452L174.891 77.2581ZM171.219 77.6163L166.745 76.3742L166.477 77.3377L170.952 78.5798L171.219 77.6163ZM166.869 77.284C168.163 76.5034 169.226 75.3664 169.875 73.962L168.967 73.5424C168.407 74.754 167.486 75.7436 166.353 76.4278L166.869 77.284ZM169.288 74.2339L171.953 74.9738L172.22 74.0102L169.555 73.2704L169.288 74.2339ZM178.918 44.9374L171.511 32.8374L170.658 33.3595L178.065 45.4595L178.918 44.9374ZM170.603 32.9647L168.348 41.0879L169.311 41.3554L171.566 33.2322L170.603 32.9647ZM168.348 41.0879C168.221 41.5458 168.296 42.0317 168.545 42.4375L169.397 41.9153C169.288 41.7361 169.261 41.5352 169.311 41.3554L168.348 41.0879ZM168.545 42.4375C168.792 42.842 169.192 43.1358 169.651 43.2632L169.918 42.2997C169.694 42.2374 169.508 42.0959 169.397 41.9153L168.545 42.4375ZM169.651 43.2632L178.358 45.6802L178.625 44.7167L169.918 42.2997L169.651 43.2632Z" fill="white" mask="url(#path-2-inside-1_899_9319)"/>
<path d="M33.205 65.925C33.205 67.9783 32.9367 69.7867 32.4 71.35C31.8633 72.89 31.1167 74.185 30.16 75.235C29.2267 76.285 28.1067 77.0783 26.8 77.615C25.4933 78.1517 24.07 78.42 22.53 78.42C20.9667 78.42 19.5433 78.1517 18.26 77.615C16.9767 77.0783 15.8683 76.285 14.935 75.235C14.025 74.185 13.3133 72.89 12.8 71.35C12.2867 69.7867 12.03 67.9783 12.03 65.925C12.03 63.8717 12.2983 62.075 12.835 60.535C13.3717 58.9717 14.1067 57.665 15.04 56.615C15.9967 55.565 17.1283 54.7717 18.435 54.235C19.7417 53.6983 21.1767 53.43 22.74 53.43C24.28 53.43 25.6917 53.6983 26.975 54.235C28.2583 54.7717 29.355 55.565 30.265 56.615C31.1983 57.665 31.9217 58.9717 32.435 60.535C32.9483 62.075 33.205 63.8717 33.205 65.925ZM29.95 65.925C29.95 62.6583 29.2967 60.1967 27.99 58.54C26.6833 56.8833 24.8983 56.055 22.635 56.055C20.3483 56.055 18.5517 56.8833 17.245 58.54C15.9383 60.1967 15.285 62.6583 15.285 65.925C15.285 69.1217 15.9383 71.5717 17.245 73.275C18.5517 74.955 20.3483 75.795 22.635 75.795C24.8983 75.795 26.6833 74.955 27.99 73.275C29.2967 71.5717 29.95 69.1217 29.95 65.925ZM53.7396 61.13C53.7396 63.6267 52.9113 65.61 51.2546 67.08C49.6213 68.55 47.0779 69.285 43.6246 69.285H41.5246V78H38.4796V53.85H43.7996C47.2529 53.85 49.7729 54.48 51.3596 55.74C52.9463 57 53.7396 58.7967 53.7396 61.13ZM50.4846 61.305C50.4846 59.6717 49.9479 58.4467 48.8746 57.63C47.8246 56.79 46.1329 56.37 43.7996 56.37H41.5246V66.765H43.6246C46.0046 66.765 47.7429 66.2867 48.8396 65.33C49.9363 64.3733 50.4846 63.0317 50.4846 61.305ZM71.5322 56.37H61.4172V64.56H70.6922V67.08H61.4172V75.48H72.4772L72.2672 78H58.3722V53.85H71.7422L71.5322 56.37ZM95.3344 78H92.4994L80.3544 59.345H80.2844V78H77.2394V53.85H80.0744L92.2194 72.4H92.2894V53.85H95.3344V78ZM129.694 65.925C129.694 67.9783 129.426 69.7867 128.889 71.35C128.353 72.89 127.606 74.185 126.649 75.235C125.716 76.285 124.596 77.0783 123.289 77.615C121.983 78.1517 120.559 78.42 119.019 78.42C117.456 78.42 116.033 78.1517 114.749 77.615C113.466 77.0783 112.358 76.285 111.424 75.235C110.514 74.185 109.803 72.89 109.289 71.35C108.776 69.7867 108.519 67.9783 108.519 65.925C108.519 63.8717 108.788 62.075 109.324 60.535C109.861 58.9717 110.596 57.665 111.529 56.615C112.486 55.565 113.618 54.7717 114.924 54.235C116.231 53.6983 117.666 53.43 119.229 53.43C120.769 53.43 122.181 53.6983 123.464 54.235C124.748 54.7717 125.844 55.565 126.754 56.615C127.688 57.665 128.411 58.9717 128.924 60.535C129.438 62.075 129.694 63.8717 129.694 65.925ZM126.439 65.925C126.439 62.6583 125.786 60.1967 124.479 58.54C123.173 56.8833 121.388 56.055 119.124 56.055C116.838 56.055 115.041 56.8833 113.734 58.54C112.428 60.1967 111.774 62.6583 111.774 65.925C111.774 69.1217 112.428 71.5717 113.734 73.275C115.041 74.955 116.838 75.795 119.124 75.795C121.388 75.795 123.173 74.955 124.479 73.275C125.786 71.5717 126.439 69.1217 126.439 65.925ZM148.906 78L146.246 70.265H137.601L134.941 78H131.826L140.856 53.85H143.271L152.301 78H148.906ZM142.011 57.84H141.941L138.406 67.955H145.476L142.011 57.84ZM171.249 61.13C171.249 63.6267 170.421 65.61 168.764 67.08C167.131 68.55 164.588 69.285 161.134 69.285H159.034V78H155.989V53.85H161.309C164.763 53.85 167.283 54.48 168.869 55.74C170.456 57 171.249 58.7967 171.249 61.13ZM167.994 61.305C167.994 59.6717 167.458 58.4467 166.384 57.63C165.334 56.79 163.643 56.37 161.309 56.37H159.034V66.765H161.134C163.514 66.765 165.253 66.2867 166.349 65.33C167.446 64.3733 167.994 63.0317 167.994 61.305Z" fill="#0E0E0F"/>
</svg>
