<svg width="34" height="34" viewBox="0 0 34 34" fill="none" xmlns="http://www.w3.org/2000/svg" >
    <rect width="34" height="34" fill="#163986"/>
    <path d="M29.1658 14.7861L29.1256 14.9306L25.9947 26.2094C25.9416 26.4007 25.8097 26.5593 25.6316 26.6519C25.4539 26.7444 25.2444 26.7642 25.0489 26.7099L23.9189 26.3962C23.67 26.8851 23.3092 27.2986 22.8755 27.6174L24.6595 28.1127C25.2657 28.2809 25.9076 28.2171 26.4437 27.9382C26.9793 27.6594 27.3651 27.1892 27.5196 26.6327L30.7043 15.1599C30.7043 15.1599 30.7043 15.1599 30.7043 15.1599C30.8587 14.6034 30.7704 14.0017 30.455 13.4869L30.5735 13.4143L30.455 13.4868L25.2324 4.95932C25.2221 4.94399 25.2108 4.92919 25.1986 4.91499L25.195 4.91084L25.1951 4.91078C25.1808 4.89301 25.1672 4.87475 25.1544 4.85603L25.1542 4.85583C25.088 4.7592 25.0289 4.67353 24.9596 4.59666C24.9386 4.57479 24.916 4.5542 24.8919 4.53506L24.8868 4.53101L24.8869 4.53091L24.8376 4.48806L24.8318 4.483L24.8319 4.48286L24.781 4.43381L24.7805 4.43337L24.7761 4.42916C24.7209 4.3764 24.6725 4.3302 24.6212 4.29153C24.4243 4.14467 24.1959 4.03378 23.9513 3.94834C23.951 3.94823 23.9506 3.94811 23.9503 3.94799L23.9997 3.80636C23.977 3.79886 23.9538 3.78876 23.9306 3.77866L29.1658 14.7861ZM29.1658 14.7861L29.0212 14.746L23.5795 13.2354C22.9733 13.0671 22.4561 12.6815 22.1405 12.1661C21.8252 11.6512 21.7371 11.0494 21.8916 10.4929L23.3005 5.41744L23.3406 5.27291L23.1961 5.23279L15.9404 3.21866C15.7449 3.16437 15.5354 3.18416 15.3577 3.27662C15.1796 3.36931 15.0477 3.52789 14.9946 3.71917L11.7388 15.4478C11.3451 15.0516 10.8782 14.7264 10.3625 14.4894L13.4698 3.29588C13.6243 2.73933 14.01 2.26912 14.5456 1.9904C15.0817 1.71145 15.7236 1.64762 16.3298 1.81591L23.7935 3.88778C23.8121 3.89295 23.8284 3.89947 23.8525 3.90907C23.8588 3.91159 23.8657 3.91432 23.8732 3.9173L29.1658 14.7861ZM28.0538 12.9666L28.4206 13.0684L28.2219 12.7437L24.7468 7.06689L24.5666 6.77257L24.4743 7.10508L23.4164 10.9162C23.3633 11.1075 23.3946 11.3113 23.4994 11.4826C23.604 11.6534 23.7733 11.7783 23.9689 11.8326L28.0538 12.9666Z" fill="white" stroke="#163986" stroke-width="0.3"/>
    <path d="M8.66992 21.5V21.9688C8.66992 22.6133 8.58594 23.1914 8.41797 23.7031C8.25 24.2148 8.00977 24.6504 7.69727 25.0098C7.38867 25.3691 7.01758 25.6445 6.58398 25.8359C6.15039 26.0234 5.66992 26.1172 5.14258 26.1172C4.61914 26.1172 4.14062 26.0234 3.70703 25.8359C3.27734 25.6445 2.9043 25.3691 2.58789 25.0098C2.27148 24.6504 2.02539 24.2148 1.84961 23.7031C1.67773 23.1914 1.5918 22.6133 1.5918 21.9688V21.5C1.5918 20.8555 1.67773 20.2793 1.84961 19.7715C2.02148 19.2598 2.26367 18.8242 2.57617 18.4648C2.89258 18.1016 3.26562 17.8262 3.69531 17.6387C4.12891 17.4473 4.60742 17.3516 5.13086 17.3516C5.6582 17.3516 6.13867 17.4473 6.57227 17.6387C7.00586 17.8262 7.37891 18.1016 7.69141 18.4648C8.00391 18.8242 8.24414 19.2598 8.41211 19.7715C8.58398 20.2793 8.66992 20.8555 8.66992 21.5ZM7.19922 21.9688V21.4883C7.19922 21.0117 7.15234 20.5918 7.05859 20.2285C6.96875 19.8613 6.83398 19.5547 6.6543 19.3086C6.47852 19.0586 6.26172 18.8711 6.00391 18.7461C5.74609 18.6172 5.45508 18.5527 5.13086 18.5527C4.80664 18.5527 4.51758 18.6172 4.26367 18.7461C4.00977 18.8711 3.79297 19.0586 3.61328 19.3086C3.4375 19.5547 3.30273 19.8613 3.20898 20.2285C3.11523 20.5918 3.06836 21.0117 3.06836 21.4883V21.9688C3.06836 22.4453 3.11523 22.8672 3.20898 23.2344C3.30273 23.6016 3.43945 23.9121 3.61914 24.166C3.80273 24.416 4.02148 24.6055 4.27539 24.7344C4.5293 24.8594 4.81836 24.9219 5.14258 24.9219C5.4707 24.9219 5.76172 24.8594 6.01562 24.7344C6.26953 24.6055 6.48438 24.416 6.66016 24.166C6.83594 23.9121 6.96875 23.6016 7.05859 23.2344C7.15234 22.8672 7.19922 22.4453 7.19922 21.9688ZM13.334 18.6055L10.7852 26H9.24415L12.4551 17.4688H13.4395L13.334 18.6055ZM15.4668 26L12.9121 18.6055L12.8008 17.4688H13.791L17.0137 26H15.4668ZM15.3438 22.8359V24.002H10.7031V22.8359H15.3438ZM21.209 22.8184H18.9883V21.6523H21.209C21.5957 21.6523 21.9082 21.5898 22.1465 21.4648C22.3848 21.3398 22.5586 21.168 22.668 20.9492C22.7813 20.7266 22.8379 20.4727 22.8379 20.1875C22.8379 19.918 22.7813 19.666 22.668 19.4316C22.5586 19.1934 22.3848 19.002 22.1465 18.8574C21.9082 18.7129 21.5957 18.6406 21.209 18.6406H19.4395V26H17.9688V17.4688H21.209C21.8692 17.4688 22.4297 17.5859 22.8906 17.8203C23.3555 18.0508 23.709 18.3711 23.9512 18.7812C24.1934 19.1875 24.3145 19.6523 24.3145 20.1758C24.3145 20.7266 24.1934 21.1992 23.9512 21.5938C23.709 21.9883 23.3555 22.291 22.8906 22.502C22.4297 22.7129 21.8692 22.8184 21.209 22.8184Z" fill="white"/>
</svg>
