<svg width="32" height="32" viewBox="0 0 32 32" fill="none" xmlns="http://www.w3.org/2000/svg">
    <rect width="32" height="32" fill="transparent"/>
    <path d="M19.7867 4.61325L17.6567 11.0184C17.4684 11.5846 17.5127 12.2025 17.78 12.736C18.0472 13.2696 18.5155 13.6751 19.0817 13.8634L25.4868 15.9934L21.4634 28.092C21.2751 28.6582 20.8696 29.1265 20.336 29.3937C19.8025 29.661 19.1846 29.7053 18.6184 29.517L5.80815 25.2569C5.2419 25.0686 4.77365 24.6631 4.50641 24.1295C4.23916 23.596 4.19482 22.9781 4.38312 22.4119L10.5366 3.90823C10.7249 3.34198 11.1304 2.87373 11.664 2.60649C12.1975 2.33925 12.8154 2.2949 13.3816 2.48321L19.7867 4.61325ZM21.0918 5.44243L19.08 11.4917C19.0173 11.6804 19.0321 11.8864 19.1211 12.0642C19.2102 12.2421 19.3663 12.3773 19.5551 12.44L25.6043 14.4518L21.0918 5.44243Z" fill="#163986"/>
</svg>
