<?xml version="1.0" encoding="UTF-8"?>
<svg width="1203px" height="1203px" viewBox="0 0 1203 1203" version="1.1" xmlns="http://www.w3.org/2000/svg" xmlns:xlink="http://www.w3.org/1999/xlink">
    <!-- Generator: Sketch 58 (84663) - https://sketch.com -->
    <title>Group</title>
    <desc>Created with Sketch.</desc>
    <g id="Page-1" stroke="none" stroke-width="1" fill="none" fill-rule="evenodd">
        <g id="Group">
            <rect id="Rectangle" fill="#2FDE00" x="0" y="0" width="1203" height="1203"></rect>
            <g id="cosmoblonde_logo" transform="translate(193.000000, 190.000000)" fill="#FFFFFF" fill-rule="nonzero">
                <path d="M384.721642,749.932836 C207.908209,737.738806 68.8962687,590.800746 68.8962687,410.938806 C68.8962687,231.076866 208.51791,84.138806 384.721642,71.9447761 L384.721642,3.04850746 C170.106716,15.8522388 0,193.275373 0,410.938806 C0,628.602239 170.106716,806.635075 384.721642,818.829104 L384.721642,749.932836 Z" id="path143"></path>
                <path d="M747.49403,435.936567 C735.3,603.604478 601.165672,737.738806 433.497761,749.932836 L433.497761,818.829104 C638.967164,806.635075 803.586567,642.015672 816.390299,435.936567 L747.49403,435.936567 L747.49403,435.936567 Z" id="path145"></path>
                <path d="M747.49403,387.160448 L816.390299,387.160448 C804.80597,181.081343 639.576866,15.8522388 433.497761,3.04850746 L433.497761,71.9447761 C601.775373,84.7485075 735.909701,218.882836 747.49403,387.160448 Z" id="path147"></path>
            </g>
        </g>
    </g>
</svg>