<svg aria-hidden="true" style="position: absolute; width: 0; height: 0; overflow: hidden;" focusable="false" version="1.1" xmlns="http://www.w3.org/2000/svg" xmlns:xlink="http://www.w3.org/1999/xlink"><defs>
    <symbol id="icon-error" viewBox="0 0 22 20">
        <path fill-rule="evenodd" clip-rule="evenodd" d="M12.6398 2.86207C11.9632 1.712 10.3001 1.712 9.6234 2.86207L2.0373 15.7585C1.35124 16.925 2.19237 18.3955 3.54552 18.3955H18.7177C20.0709 18.3955 20.912 16.925 20.2259 15.7585L12.6398 2.86207ZM8.61787 2.27074C9.74549 0.353765 12.5178 0.353765 13.6453 2.27074L21.2314 15.1672C22.375 17.1113 20.9732 19.5622 18.7178 19.5622H3.54563C1.29024 19.5622 -0.111539 17.1113 1.03207 15.1672L8.61787 2.27074Z" fill="currentColor"/>
        <path fill-rule="evenodd" clip-rule="evenodd" d="M10.5483 11.9787V4.97949H11.715V11.9787H10.5483Z" fill="currentColor"/>
        <path fill-rule="evenodd" clip-rule="evenodd" d="M10.5483 16.0623V14.3125H11.715V16.0623H10.5483Z" fill="currentColor"/>
    </symbol>
    <symbol id="icon-cancel" viewBox="0 0 18 18">
        <path d="M12.0482 6.23682C12.0482 6.15947 11.985 6.09619 11.9076 6.09619L10.7475 6.10147L9.00019 8.18447L7.25469 6.10322L6.09277 6.09795C6.01543 6.09795 5.95215 6.15947 5.95215 6.23857C5.95215 6.27197 5.96445 6.30361 5.98555 6.32998L8.27246 9.05459L5.98555 11.7774C5.96431 11.8032 5.95252 11.8355 5.95215 11.8688C5.95215 11.9462 6.01543 12.0095 6.09277 12.0095L7.25469 12.0042L9.00019 9.92119L10.7457 12.0024L11.9059 12.0077C11.9832 12.0077 12.0465 11.9462 12.0465 11.8671C12.0465 11.8337 12.0342 11.8021 12.0131 11.7757L9.72969 9.05283L12.0166 6.32822C12.0377 6.30361 12.0482 6.27021 12.0482 6.23682Z" fill="currentColor"/>
        <circle cx="9" cy="9" r="7.5" stroke="currentColor" fill="none"/>
    </symbol>
    <symbol id="icon-save-close" viewBox="0 0 18 18">
        <path d="M7.3125 11.5625C7.3125 11.7006 7.42443 11.8125 7.5625 11.8125H14.7206L13.6216 12.9158C13.4269 13.1112 13.4272 13.4272 13.6222 13.6222L13.7089 13.7089C13.9042 13.9042 14.2208 13.9042 14.4161 13.7089L16.6982 11.4268C16.7959 11.3291 16.7959 11.1709 16.6982 11.0732L14.4161 8.79105C14.2208 8.59579 13.9042 8.59579 13.7089 8.79105L13.6222 8.87775C13.4272 9.07275 13.4269 9.38881 13.6216 9.58418L14.7206 10.6875H7.5625C7.42443 10.6875 7.3125 10.7994 7.3125 10.9375V11.5625Z" fill="currentColor"/>
        <path d="M12.125 7.87501C12.2631 7.87501 12.375 7.76308 12.375 7.62501V5.62501C12.3754 5.55098 12.3612 5.4776 12.3332 5.40906C12.3053 5.34053 12.264 5.27819 12.2119 5.22563L8.27437 1.28813C8.22182 1.236 8.15948 1.19476 8.09095 1.16676C8.02241 1.13877 7.94903 1.12458 7.875 1.12501H2.25C1.95163 1.12501 1.66548 1.24354 1.4545 1.45451C1.24353 1.66549 1.125 1.95164 1.125 2.25001V15.75C1.125 16.0484 1.24353 16.3345 1.4545 16.5455C1.66548 16.7565 1.95163 16.875 2.25 16.875H11.25C11.5484 16.875 11.8345 16.7565 12.0455 16.5455C12.2565 16.3345 12.375 16.0484 12.375 15.75V14.875C12.375 14.7369 12.2631 14.625 12.125 14.625H11.5C11.3619 14.625 11.25 14.7369 11.25 14.875V15.75H2.25V2.25001H6.75V5.62501C6.75 5.92338 6.86853 6.20953 7.0795 6.4205C7.29048 6.63148 7.57663 6.75001 7.875 6.75001H11.25V7.62501C11.25 7.76308 11.3619 7.87501 11.5 7.87501H12.125ZM7.875 5.62501V2.48063L11.0194 5.62501H7.875Z" fill="currentColor"/>
    </symbol>
    <symbol id="icon-comments-small" viewBox="0 0 16 15">
        <path d="M0.125 3.0625C0.125 2.31658 0.421316 1.60121 0.948762 1.07376C1.47621 0.546316 2.19158 0.25 2.9375 0.25H13.0625C13.8084 0.25 14.5238 0.546316 15.0512 1.07376C15.5787 1.60121 15.875 2.31658 15.875 3.0625V8.6875C15.875 9.05684 15.8023 9.42257 15.6609 9.7638C15.5196 10.105 15.3124 10.4151 15.0512 10.6762C14.7901 10.9374 14.48 11.1446 14.1388 11.2859C13.7976 11.4273 13.4318 11.5 13.0625 11.5H8.774L5.32812 14.515C5.16868 14.6544 4.97246 14.7449 4.76293 14.7757C4.55341 14.8065 4.33944 14.7764 4.14661 14.6888C3.95378 14.6012 3.79026 14.46 3.67559 14.2819C3.56092 14.1038 3.49996 13.8965 3.5 13.6848V11.5H2.9375C2.19158 11.5 1.47621 11.2037 0.948762 10.6762C0.421316 10.1488 0.125 9.43342 0.125 8.6875V3.0625ZM2.9375 1.375C2.48995 1.375 2.06072 1.55279 1.74426 1.86926C1.42779 2.18572 1.25 2.61495 1.25 3.0625V8.6875C1.25 9.13505 1.42779 9.56428 1.74426 9.88074C2.06072 10.1972 2.48995 10.375 2.9375 10.375H4.625V13.6353L8.351 10.375H13.0625C13.5101 10.375 13.9393 10.1972 14.2557 9.88074C14.5722 9.56428 14.75 9.13505 14.75 8.6875V3.0625C14.75 2.61495 14.5722 2.18572 14.2557 1.86926C13.9393 1.55279 13.5101 1.375 13.0625 1.375H2.9375Z" fill="currentColor"/>
    </symbol>
    <symbol id="icon-new-comments" viewBox="0 0 21 21">
        <path d="M10.0212 2.74843C9.23669 3.97701 8.92973 5.45057 9.15847 6.89023C9.38721 8.32989 10.1358 9.63574 11.2625 10.5606C12.3892 11.4856 13.8159 11.9653 15.2725 11.9092C16.7292 11.853 18.1147 11.2648 19.1668 10.2559V13.5202C19.1668 13.9114 19.0898 14.2988 18.9401 14.6603C18.7903 15.0217 18.5709 15.3501 18.2943 15.6268C18.0176 15.9034 17.6892 16.1229 17.3277 16.2726C16.9663 16.4223 16.5789 16.4993 16.1877 16.4993H10.8847L5.94666 19.9983C5.80954 20.0954 5.64836 20.153 5.48073 20.1647C5.3131 20.1764 5.14548 20.1418 4.99618 20.0647C4.84688 19.9876 4.72165 19.8709 4.63417 19.7274C4.5467 19.584 4.50034 19.4192 4.50016 19.2512V16.4993H3.81266C3.02254 16.4993 2.26478 16.1855 1.70607 15.6268C1.14737 15.0681 0.833496 14.3103 0.833496 13.5202V5.72852C0.833496 4.93839 1.14737 4.18063 1.70607 3.62193C2.26478 3.06322 3.02254 2.74935 3.81266 2.74935L10.0212 2.74843ZM15.0418 0.916016C15.7039 0.916016 16.3595 1.04642 16.9712 1.29979C17.5829 1.55316 18.1387 1.92452 18.6068 2.39269C19.075 2.86085 19.4464 3.41664 19.6997 4.02832C19.9531 4.64 20.0835 5.2956 20.0835 5.95768C20.0835 6.61976 19.9531 7.27536 19.6997 7.88704C19.4464 8.49873 19.075 9.05452 18.6068 9.52268C18.1387 9.99084 17.5829 10.3622 16.9712 10.6156C16.3595 10.8689 15.7039 10.9993 15.0418 10.9993C13.7047 10.9993 12.4223 10.4682 11.4768 9.52268C10.5313 8.57718 10.0002 7.29481 10.0002 5.95768C10.0002 4.62055 10.5313 3.33818 11.4768 2.39269C12.4223 1.44719 13.7047 0.916016 15.0418 0.916016ZM17.4673 3.79985L13.7172 7.55268L12.6585 6.14102C12.5856 6.04377 12.477 5.97948 12.3566 5.96229C12.2363 5.9451 12.1141 5.97641 12.0168 6.04935C11.9196 6.12228 11.8553 6.23086 11.8381 6.3512C11.8209 6.47153 11.8522 6.59377 11.9252 6.69102L13.3002 8.52435C13.3395 8.57698 13.3898 8.62052 13.4474 8.65203C13.5051 8.68355 13.5689 8.70228 13.6344 8.70698C13.7 8.71167 13.7658 8.70221 13.8274 8.67924C13.8889 8.65627 13.9449 8.62033 13.9913 8.57385L18.1163 4.44885C18.2024 4.36291 18.2508 4.2463 18.2509 4.12467C18.251 4.00305 18.2027 3.88637 18.1168 3.80031C18.0308 3.71424 17.9142 3.66585 17.7926 3.66576C17.671 3.66567 17.5543 3.71391 17.4682 3.79985H17.4673Z" fill="currentColor"/>
    </symbol>
    <symbol id="icon-add" viewBox="0 0 17 17">
        <path d="M8.5 0C13.1946 0 17 3.80545 17 8.5C17 13.1946 13.1946 17 8.5 17C3.80545 17 0 13.1946 0 8.5C0 3.80545 3.80545 0 8.5 0ZM8.5 1.275C6.58381 1.275 4.7461 2.0362 3.39115 3.39115C2.0362 4.7461 1.275 6.58381 1.275 8.5C1.275 10.4162 2.0362 12.2539 3.39115 13.6088C4.7461 14.9638 6.58381 15.725 8.5 15.725C10.4162 15.725 12.2539 14.9638 13.6088 13.6088C14.9638 12.2539 15.725 10.4162 15.725 8.5C15.725 6.58381 14.9638 4.7461 13.6088 3.39115C12.2539 2.0362 10.4162 1.275 8.5 1.275ZM8.5 4.25C8.66908 4.25 8.83123 4.31716 8.95078 4.43672C9.07034 4.55627 9.1375 4.71842 9.1375 4.8875V7.8625H12.1125C12.2816 7.8625 12.4437 7.92967 12.5633 8.04922C12.6828 8.16877 12.75 8.33092 12.75 8.5C12.75 8.66908 12.6828 8.83123 12.5633 8.95078C12.4437 9.07034 12.2816 9.1375 12.1125 9.1375H9.1375V12.1125C9.1375 12.2816 9.07034 12.4437 8.95078 12.5633C8.83123 12.6828 8.66908 12.75 8.5 12.75C8.33092 12.75 8.16877 12.6828 8.04922 12.5633C7.92967 12.4437 7.8625 12.2816 7.8625 12.1125V9.1375H4.8875C4.71842 9.1375 4.55627 9.07034 4.43672 8.95078C4.31716 8.83123 4.25 8.66908 4.25 8.5C4.25 8.33092 4.31716 8.16877 4.43672 8.04922C4.55627 7.92967 4.71842 7.8625 4.8875 7.8625H7.8625V4.8875C7.8625 4.71842 7.92967 4.55627 8.04922 4.43672C8.16877 4.31716 8.33092 4.25 8.5 4.25Z" fill="currentColor"/>
    </symbol>
    <symbol id="icon-subtract" viewBox="0 0 18 18">
        <path d="M5.96261 8.39258H12.034C12.1951 8.39258 12.3495 8.45654 12.4634 8.57041C12.5772 8.68427 12.6412 8.8387 12.6412 8.99972C12.6412 9.16075 12.5772 9.31517 12.4634 9.42904C12.3495 9.5429 12.1951 9.60686 12.034 9.60686H5.96261C5.80159 9.60686 5.64716 9.5429 5.5333 9.42904C5.41944 9.31517 5.35547 9.16075 5.35547 8.99972C5.35547 8.8387 5.41944 8.68427 5.5333 8.57041C5.64716 8.45654 5.80159 8.39258 5.96261 8.39258Z" fill="currentColor"/>
        <path d="M9 16.2857C9.95677 16.2857 10.9042 16.0973 11.7881 15.7311C12.6721 15.365 13.4752 14.8283 14.1518 14.1518C14.8283 13.4752 15.365 12.6721 15.7311 11.7881C16.0973 10.9042 16.2857 9.95677 16.2857 9C16.2857 8.04323 16.0973 7.09582 15.7311 6.21188C15.365 5.32793 14.8283 4.52476 14.1518 3.84822C13.4752 3.17168 12.6721 2.63502 11.7881 2.26888C10.9042 1.90274 9.95677 1.71429 9 1.71429C7.06771 1.71429 5.21456 2.48189 3.84822 3.84822C2.48189 5.21456 1.71429 7.06771 1.71429 9C1.71429 10.9323 2.48189 12.7854 3.84822 14.1518C5.21456 15.5181 7.06771 16.2857 9 16.2857ZM9 17.5C6.74566 17.5 4.58365 16.6045 2.98959 15.0104C1.39553 13.4163 0.5 11.2543 0.5 9C0.5 6.74566 1.39553 4.58365 2.98959 2.98959C4.58365 1.39553 6.74566 0.5 9 0.5C11.2543 0.5 13.4163 1.39553 15.0104 2.98959C16.6045 4.58365 17.5 6.74566 17.5 9C17.5 11.2543 16.6045 13.4163 15.0104 15.0104C13.4163 16.6045 11.2543 17.5 9 17.5Z" fill="currentColor"/>
    </symbol>
    <symbol id="icon-upload" viewBox="0 0 26 26">
        <path d="M4.7666 11.9828H4.6166V12.1328V14.7328C4.6166 16.0122 5.65383 17.0494 6.93337 17.0494H19.0665C20.346 17.0494 21.3832 16.0122 21.3832 14.7328V12.1328V11.9828H21.2332H20.3665H20.2165V12.1328V14.7328C20.2165 15.3679 19.7016 15.8828 19.0665 15.8828H6.93337C6.29818 15.8828 5.78337 15.3679 5.78337 14.7328V12.1328V11.9828H5.63337H4.7666Z" fill="currentColor" stroke-width="0.3"/>
        <path d="M13.5837 5.19922V5.04922H13.4337H12.5669H12.4169V5.19922V14.7327V14.8827H12.5669H13.4337H13.5837V14.7327V5.19922Z" fill="currentColor" stroke-width="0.3"/>
        <path d="M13.4555 4.83457L13.4554 4.8345C13.3447 4.69632 13.1772 4.61562 13 4.61562H12.9999C12.8228 4.61562 12.6551 4.69625 12.5445 4.83457C12.5444 4.83458 12.5444 4.83459 12.5444 4.83461L9.07769 9.16802L8.98398 9.28516L9.10114 9.37887L9.77799 9.92019L9.89512 10.0139L9.98881 9.89674L13 6.13276L16.0111 9.89674L16.1048 10.0139L16.2219 9.92018L16.8986 9.37886L17.0158 9.28515L16.9221 9.16802L13.4555 4.83457Z" fill="currentColor" stroke-width="0.3"/>
    </symbol>
    <symbol id="icon-delete" viewBox="0 0 17 17">
        <path d="M2.7627 4.19727H14.2377L13.1045 14.3957C13.0657 14.7466 12.8988 15.071 12.6357 15.3065C12.3726 15.5421 12.0319 15.6723 11.6788 15.6723H5.32162C4.9685 15.6723 4.62779 15.5421 4.36471 15.3065C4.10164 15.071 3.93469 14.7466 3.89585 14.3957L2.7627 4.19727Z" stroke="currentColor" fill="none" stroke-linecap="round" stroke-linejoin="round"/>
        <path d="M5.16139 2.15074C5.2774 1.90472 5.46097 1.69676 5.69068 1.55111C5.9204 1.40546 6.18679 1.32812 6.45879 1.32813H10.541C10.8131 1.32799 11.0797 1.40526 11.3095 1.55091C11.5394 1.69657 11.7231 1.90461 11.8391 2.15074L12.803 4.19688H4.19678L5.16139 2.15074Z" stroke="currentColor" fill="none" stroke-linecap="round" stroke-linejoin="round"/>
        <path d="M1.32812 4.19727H15.6719" stroke="currentColor" fill="none" stroke-linecap="round" stroke-linejoin="round"/>
        <path d="M7.06543 7.7832V11.3691" stroke="currentColor" fill="none" stroke-linecap="round" stroke-linejoin="round"/>
        <path d="M9.93457 7.7832V11.3691" stroke="currentColor" fill="none" stroke-linecap="round" stroke-linejoin="round"/>
    </symbol>
    <symbol id="icon-download" viewBox="0 0 14 18">
        <path d="M1 17H13" stroke="currentColor" stroke-linecap="round" stroke-linejoin="round"/>
        <path d="M7 13L3.5 9.5M7 1V13V1ZM7 13L10.5 9.5L7 13Z" stroke="currentColor" stroke-linecap="round" stroke-linejoin="round"/>
    </symbol>
    <symbol id="icon-file-saved" viewBox="0 0 24 24">
        <path d="M16.8695 19.323H8.39118C8.09146 19.3226 7.80411 19.2019 7.59217 18.9871C7.38024 18.7723 7.26104 18.4811 7.26074 18.1773V14.7404H8.39118V18.1773H16.8695V5.57532H11.7825V4.42969H16.8695C17.1692 4.42999 17.4566 4.55079 17.6685 4.76557C17.8804 4.98035 17.9996 5.27157 17.9999 5.57532V18.1773C17.9996 18.4811 17.8804 18.7723 17.6685 18.9871C17.4566 19.2019 17.1692 19.3226 16.8695 19.323Z" fill="currentcolor"/>
        <path d="M7.8261 13.5953C7.0768 13.5946 6.35841 13.2926 5.82857 12.7556C5.29874 12.2187 5.00075 11.4906 5 10.7312V4.43024H6.13044V10.7312C6.13044 11.187 6.30909 11.6241 6.62709 11.9464C6.94509 12.2686 7.37639 12.4497 7.8261 12.4497C8.27582 12.4497 8.70712 12.2686 9.02512 11.9464C9.34312 11.6241 9.52177 11.187 9.52177 10.7312V5.57588C9.52177 5.42396 9.46222 5.27826 9.35622 5.17083C9.25022 5.06341 9.10645 5.00306 8.95655 5.00306C8.80664 5.00306 8.66287 5.06341 8.55688 5.17083C8.45088 5.27826 8.39133 5.42396 8.39133 5.57588V11.3041H7.26088V5.57588C7.26088 5.12011 7.43953 4.68302 7.75753 4.36075C8.07553 4.03847 8.50683 3.85742 8.95655 3.85742C9.40626 3.85742 9.83756 4.03847 10.1556 4.36075C10.4736 4.68302 10.6522 5.12011 10.6522 5.57588V10.7312C10.6515 11.4906 10.3535 12.2187 9.82364 12.7556C9.2938 13.2926 8.5754 13.5946 7.8261 13.5953Z" fill="currentcolor"/>
    </symbol>
    <symbol id="icon-file-uploaded" viewBox="0 0 32 32">
        <path d="M4.915 8.344l8-8c0.229-0.229 0.457-0.343 0.8-0.343h11.428c1.257 0 2.286 1.029 2.286 2.286v27.427c0 1.257-1.029 2.286-2.286 2.286h-18.285c-1.257 0-2.286-1.029-2.286-2.286v-20.57c0-0.343 0.114-0.571 0.343-0.8zM13.714 2.744l-6.4 6.4h6.4v-6.4zM6.858 29.714h18.285v-27.427h-9.142v6.857c0 1.257-1.029 2.286-2.286 2.286h-6.857v18.285z" fill="currentcolor"></path>
    </symbol>
    <symbol id="icon-datepicker" viewBox="0 0 32 32">
        <path fill-rule="evenodd" clip-rule="evenodd" d="M11.1937 4.00046C11.166 4.00064 11.1383 4.00207 11.1108 4.0051C10.7012 4.05185 10.3942 4.40195 10.4015 4.81397V5.61018H6.40468C5.08897 5.61018 4 6.69829 4 8.01307V25.5988C4 26.9135 5.08892 28 6.40468 28H25.603C26.9187 28 28 26.9135 28 25.5988L27.9998 8.01353C27.9998 6.69861 26.9188 5.6105 25.603 5.6105H21.6046V4.81429C21.6133 4.33035 21.1933 3.94974 20.7124 4.00542C20.3033 4.05289 19.9971 4.40281 20.0046 4.81429V5.6105H16.8029V4.81429C16.8117 4.33108 16.3928 3.95083 15.9124 4.00542C15.5026 4.05217 15.1954 4.40227 15.2029 4.81429V5.6105H12.0013V4.81429C12.0092 4.36426 11.644 3.99633 11.1936 4.00076L11.1937 4.00046ZM6.40461 7.20898H10.4014V8.01305C10.4247 9.05548 11.9782 9.05548 12.0015 8.01305V7.20898H15.2031V8.01305C15.1788 9.10276 16.8274 9.10276 16.8031 8.01305V7.20898H20.0047V8.01305C20.0279 9.05548 21.5815 9.05548 21.6047 8.01305V7.20898H25.6032C26.0603 7.20898 26.4062 7.5564 26.4062 8.01305V10.4099H11.2029C10.1211 10.3945 10.1211 12.024 11.2029 12.0087H26.4062V25.5987C26.4062 26.0555 26.0601 26.4011 25.6032 26.4011H6.40484C5.9477 26.4011 5.60017 26.0555 5.60017 25.5987V12.0087H8.00321C9.085 12.024 9.085 10.3945 8.00321 10.4099H5.60017V8.01323C5.60017 7.55643 5.94786 7.20916 6.40484 7.20916L6.40461 7.20898ZM14.4028 15.2063C13.9611 15.2063 13.6028 15.5642 13.6028 16.0057C13.6028 16.4472 13.9611 16.8051 14.4028 16.8051C14.8446 16.8051 15.2029 16.4472 15.2029 16.0057C15.2029 15.5642 14.8446 15.2063 14.4028 15.2063ZM17.6029 15.2063C17.1611 15.2063 16.8029 15.5642 16.8029 16.0057C16.8029 16.4472 17.1611 16.8051 17.6029 16.8051C18.0447 16.8051 18.4029 16.4472 18.4029 16.0057C18.4029 15.5642 18.0447 15.2063 17.6029 15.2063ZM20.8029 15.2063C20.3611 15.2063 20.0029 15.5642 20.0029 16.0057C20.0029 16.4472 20.3611 16.8051 20.8029 16.8051C21.2447 16.8051 21.6029 16.4472 21.6029 16.0057C21.6029 15.5642 21.2447 15.2063 20.8029 15.2063ZM11.2028 18.4039C10.761 18.4039 10.4028 18.7619 10.4028 19.2033C10.4028 19.6448 10.761 20.0028 11.2028 20.0028C11.6446 20.0028 12.0028 19.6448 12.0028 19.2033C12.0028 18.7619 11.6446 18.4039 11.2028 18.4039ZM14.4028 18.4039C13.9611 18.4039 13.6028 18.7619 13.6028 19.2033C13.6028 19.6448 13.9611 20.0028 14.4028 20.0028C14.8446 20.0028 15.2029 19.6448 15.2029 19.2033C15.2029 18.7619 14.8446 18.4039 14.4028 18.4039ZM17.6029 18.4039C17.1611 18.4039 16.8029 18.7619 16.8029 19.2033C16.8029 19.6448 17.1611 20.0028 17.6029 20.0028C18.0447 20.0028 18.4029 19.6448 18.4029 19.2033C18.4029 18.7619 18.0447 18.4039 17.6029 18.4039ZM20.8029 18.4039C20.3611 18.4039 20.0029 18.7619 20.0029 19.2033C20.0029 19.6448 20.3611 20.0028 20.8029 20.0028C21.2447 20.0028 21.6029 19.6448 21.6029 19.2033C21.6029 18.7619 21.2447 18.4039 20.8029 18.4039ZM11.2028 21.6016C10.761 21.6016 10.4028 21.9595 10.4028 22.401C10.4028 22.8425 10.761 23.2004 11.2028 23.2004C11.6446 23.2004 12.0028 22.8425 12.0028 22.401C12.0028 21.9595 11.6446 21.6016 11.2028 21.6016ZM14.4028 21.6016C13.9611 21.6016 13.6028 21.9595 13.6028 22.401C13.6028 22.8425 13.9611 23.2004 14.4028 23.2004C14.8446 23.2004 15.2029 22.8425 15.2029 22.401C15.2029 21.9595 14.8446 21.6016 14.4028 21.6016ZM17.6029 21.6016C17.1611 21.6016 16.8029 21.9595 16.8029 22.401C16.8029 22.8425 17.1611 23.2004 17.6029 23.2004C18.0447 23.2004 18.4029 22.8425 18.4029 22.401C18.4029 21.9595 18.0447 21.6016 17.6029 21.6016Z" fill="currentcolor"/>
    </symbol>

</defs></svg>
